{
    "asset" : {
        "generator" : "Khronos glTF Blender I/O v1.7.33",
        "version" : "2.0"
    },
    "scene" : 0,
    "scenes" : [
        {
            "name" : "Scene",
            "nodes" : [
                0
            ]
        }
    ],
    "nodes" : [
        {
            "mesh" : 0,
            "name" : "escalier type 3",
            "rotation" : [
                0,
                -0.6990636587142944,
                0,
                0.7150594592094421
            ],
            "scale" : [
                0.26516979932785034,
                0.26516979932785034,
                0.26516979932785034
            ]
        }
    ],
    "materials" : [
        {
            "doubleSided" : true,
            "name" : "metal handel",
            "pbrMetallicRoughness" : {
                "baseColorFactor" : [
                    1,
                    0.9917330741882324,
                    0.967154324054718,
                    1
                ],
                "metallicFactor" : 0.9054545164108276,
                "roughnessFactor" : 0.09454545378684998
            }
        },
        {
            "doubleSided" : true,
            "name" : "Fence_metal.001",
            "pbrMetallicRoughness" : {
                "baseColorFactor" : [
                    0.6846015453338623,
                    0.8000000715255737,
                    0.717452347278595,
                    1
                ],
                "metallicFactor" : 0,
                "roughnessFactor" : 0.5
            }
        },
        {
            "doubleSided" : true,
            "name" : "Fence_metal.002",
            "pbrMetallicRoughness" : {
                "baseColorFactor" : [
                    0.6846015453338623,
                    0.8000000715255737,
                    0.717452347278595,
                    1
                ],
                "metallicFactor" : 0,
                "roughnessFactor" : 0.5
            }
        }
    ],
    "meshes" : [
        {
            "name" : "Plane.003",
            "primitives" : [
                {
                    "attributes" : {
                        "POSITION" : 0,
                        "NORMAL" : 1,
                        "TEXCOORD_0" : 2
                    },
                    "indices" : 3
                },
                {
                    "attributes" : {
                        "POSITION" : 4,
                        "NORMAL" : 5,
                        "TEXCOORD_0" : 6
                    },
                    "indices" : 7,
                    "material" : 0
                },
                {
                    "attributes" : {
                        "POSITION" : 8,
                        "NORMAL" : 9,
                        "TEXCOORD_0" : 10
                    },
                    "indices" : 11,
                    "material" : 1
                },
                {
                    "attributes" : {
                        "POSITION" : 12,
                        "NORMAL" : 13,
                        "TEXCOORD_0" : 14
                    },
                    "indices" : 15,
                    "material" : 2
                }
            ]
        }
    ],
    "accessors" : [
        {
            "bufferView" : 0,
            "componentType" : 5126,
            "count" : 2020,
            "max" : [
                6.205577373504639,
                4.1502685546875,
                13.296294212341309
            ],
            "min" : [
                -6.254627704620361,
                -6.341619491577148,
                -13.76455307006836
            ],
            "type" : "VEC3"
        },
        {
            "bufferView" : 1,
            "componentType" : 5126,
            "count" : 2020,
            "type" : "VEC3"
        },
        {
            "bufferView" : 2,
            "componentType" : 5126,
            "count" : 2020,
            "type" : "VEC2"
        },
        {
            "bufferView" : 3,
            "componentType" : 5123,
            "count" : 3696,
            "type" : "SCALAR"
        },
        {
            "bufferView" : 4,
            "componentType" : 5126,
            "count" : 938,
            "max" : [
                6.007518291473389,
                6.371689796447754,
                13.769681930541992
            ],
            "min" : [
                -6.043612003326416,
                -3.889430046081543,
                -13.757746696472168
            ],
            "type" : "VEC3"
        },
        {
            "bufferView" : 5,
            "componentType" : 5126,
            "count" : 938,
            "type" : "VEC3"
        },
        {
            "bufferView" : 6,
            "componentType" : 5126,
            "count" : 938,
            "type" : "VEC2"
        },
        {
            "bufferView" : 7,
            "componentType" : 5123,
            "count" : 3648,
            "type" : "SCALAR"
        },
        {
            "bufferView" : 8,
            "componentType" : 5126,
            "count" : 4640,
            "max" : [
                6.064121246337891,
                5.634711265563965,
                13.480158805847168
            ],
            "min" : [
                -6.136941432952881,
                -6.21934700012207,
                -12.872066497802734
            ],
            "type" : "VEC3"
        },
        {
            "bufferView" : 9,
            "componentType" : 5126,
            "count" : 4640,
            "type" : "VEC3"
        },
        {
            "bufferView" : 10,
            "componentType" : 5126,
            "count" : 4640,
            "type" : "VEC2"
        },
        {
            "bufferView" : 11,
            "componentType" : 5123,
            "count" : 8160,
            "type" : "SCALAR"
        },
        {
            "bufferView" : 12,
            "componentType" : 5126,
            "count" : 3712,
            "max" : [
                0.36887773871421814,
                5.824350833892822,
                13.29239559173584
            ],
            "min" : [
                -0.3743453919887543,
                -5.9945526123046875,
                -13.315142631530762
            ],
            "type" : "VEC3"
        },
        {
            "bufferView" : 13,
            "componentType" : 5126,
            "count" : 3712,
            "type" : "VEC3"
        },
        {
            "bufferView" : 14,
            "componentType" : 5126,
            "count" : 3712,
            "type" : "VEC2"
        },
        {
            "bufferView" : 15,
            "componentType" : 5123,
            "count" : 6528,
            "type" : "SCALAR"
        }
    ],
    "bufferViews" : [
        {
            "buffer" : 0,
            "byteLength" : 24240,
            "byteOffset" : 0
        },
        {
            "buffer" : 0,
            "byteLength" : 24240,
            "byteOffset" : 24240
        },
        {
            "buffer" : 0,
            "byteLength" : 16160,
            "byteOffset" : 48480
        },
        {
            "buffer" : 0,
            "byteLength" : 7392,
            "byteOffset" : 64640
        },
        {
            "buffer" : 0,
            "byteLength" : 11256,
            "byteOffset" : 72032
        },
        {
            "buffer" : 0,
            "byteLength" : 11256,
            "byteOffset" : 83288
        },
        {
            "buffer" : 0,
            "byteLength" : 7504,
            "byteOffset" : 94544
        },
        {
            "buffer" : 0,
            "byteLength" : 7296,
            "byteOffset" : 102048
        },
        {
            "buffer" : 0,
            "byteLength" : 55680,
            "byteOffset" : 109344
        },
        {
            "buffer" : 0,
            "byteLength" : 55680,
            "byteOffset" : 165024
        },
        {
            "buffer" : 0,
            "byteLength" : 37120,
            "byteOffset" : 220704
        },
        {
            "buffer" : 0,
            "byteLength" : 16320,
            "byteOffset" : 257824
        },
        {
            "buffer" : 0,
            "byteLength" : 44544,
            "byteOffset" : 274144
        },
        {
            "buffer" : 0,
            "byteLength" : 44544,
            "byteOffset" : 318688
        },
        {
            "buffer" : 0,
            "byteLength" : 29696,
            "byteOffset" : 363232
        },
        {
            "buffer" : 0,
            "byteLength" : 13056,
            "byteOffset" : 392928
        }
    ],
    "buffers" : [
        {
            "byteLength" : 405984,
            "uri" : "data:application/octet-stream;base64,"
        }
    ]
}
