{
    "asset" : {
        "generator" : "Khronos glTF Blender I/O v1.7.33",
        "version" : "2.0"
    },
    "scene" : 0,
    "scenes" : [
        {
            "name" : "Scene",
            "nodes" : [
                0,
                1,
                2
            ]
        }
    ],
    "nodes" : [
        {
            "mesh" : 0,
            "name" : "Icosphere.004",
            "rotation" : [
                -0.06923588365316391,
                0,
                0,
                0.9976003170013428
            ],
            "scale" : [
                0.4125083088874817,
                4.139805316925049,
                0.41215780377388
            ],
            "translation" : [
                7.661693572998047,
                -1.275633692741394,
                -1.603485107421875
            ]
        },
        {
            "mesh" : 1,
            "name" : "Icosphere.010",
            "scale" : [
                0.421748548746109,
                0.7743865251541138,
                0.421748548746109
            ],
            "translation" : [
                17.319988250732422,
                -2.9144487380981445,
                5.672901153564453
            ]
        },
        {
            "mesh" : 2,
            "name" : "Cube.074",
            "rotation" : [
                -0.7062326073646545,
                0,
                0,
                0.7079799175262451
            ],
            "scale" : [
                0.6763172745704651,
                0.6763375997543335,
                1.1301747560501099
            ],
            "translation" : [
                50.62807846069336,
                -13.507706642150879,
                9.20050048828125
            ]
        }
    ],
    "meshes" : [
        {
            "name" : "Icosphere.001",
            "primitives" : [
                {
                    "attributes" : {
                        "POSITION" : 0,
                        "NORMAL" : 1,
                        "TEXCOORD_0" : 2
                    },
                    "indices" : 3
                }
            ]
        },
        {
            "name" : "Icosphere.008",
            "primitives" : [
                {
                    "attributes" : {
                        "POSITION" : 4,
                        "NORMAL" : 5,
                        "TEXCOORD_0" : 6
                    },
                    "indices" : 7
                }
            ]
        },
        {
            "name" : "Cube.064",
            "primitives" : [
                {
                    "attributes" : {
                        "POSITION" : 8,
                        "NORMAL" : 9,
                        "TEXCOORD_0" : 10
                    },
                    "indices" : 11
                }
            ]
        }
    ],
    "accessors" : [
        {
            "bufferView" : 0,
            "componentType" : 5126,
            "count" : 2255,
            "max" : [
                3.192110061645508,
                0.6975246071815491,
                1.0592124462127686
            ],
            "min" : [
                -2.5514395236968994,
                -1.7082126140594482,
                -9.67652702331543
            ],
            "type" : "VEC3"
        },
        {
            "bufferView" : 1,
            "componentType" : 5126,
            "count" : 2255,
            "type" : "VEC3"
        },
        {
            "bufferView" : 2,
            "componentType" : 5126,
            "count" : 2255,
            "type" : "VEC2"
        },
        {
            "bufferView" : 3,
            "componentType" : 5123,
            "count" : 7416,
            "type" : "SCALAR"
        },
        {
            "bufferView" : 4,
            "componentType" : 5126,
            "count" : 60899,
            "max" : [
                2.14066743850708,
                0.7767234444618225,
                1.8986889123916626
            ],
            "min" : [
                -2.111447811126709,
                -5.853836536407471,
                -1.6462377309799194
            ],
            "type" : "VEC3"
        },
        {
            "bufferView" : 5,
            "componentType" : 5126,
            "count" : 60899,
            "type" : "VEC3"
        },
        {
            "bufferView" : 6,
            "componentType" : 5126,
            "count" : 60899,
            "type" : "VEC2"
        },
        {
            "bufferView" : 7,
            "componentType" : 5123,
            "count" : 92160,
            "type" : "SCALAR"
        },
        {
            "bufferView" : 8,
            "componentType" : 5126,
            "count" : 12870,
            "max" : [
                0.7541051506996155,
                1.2001397609710693,
                0.9708334803581238
            ],
            "min" : [
                -1.1770763397216797,
                -0.9434579610824585,
                -4.854167938232422
            ],
            "type" : "VEC3"
        },
        {
            "bufferView" : 9,
            "componentType" : 5126,
            "count" : 12870,
            "type" : "VEC3"
        },
        {
            "bufferView" : 10,
            "componentType" : 5126,
            "count" : 12870,
            "type" : "VEC2"
        },
        {
            "bufferView" : 11,
            "componentType" : 5123,
            "count" : 73728,
            "type" : "SCALAR"
        }
    ],
    "bufferViews" : [
        {
            "buffer" : 0,
            "byteLength" : 27060,
            "byteOffset" : 0
        },
        {
            "buffer" : 0,
            "byteLength" : 27060,
            "byteOffset" : 27060
        },
        {
            "buffer" : 0,
            "byteLength" : 18040,
            "byteOffset" : 54120
        },
        {
            "buffer" : 0,
            "byteLength" : 14832,
            "byteOffset" : 72160
        },
        {
            "buffer" : 0,
            "byteLength" : 730788,
            "byteOffset" : 86992
        },
        {
            "buffer" : 0,
            "byteLength" : 730788,
            "byteOffset" : 817780
        },
        {
            "buffer" : 0,
            "byteLength" : 487192,
            "byteOffset" : 1548568
        },
        {
            "buffer" : 0,
            "byteLength" : 184320,
            "byteOffset" : 2035760
        },
        {
            "buffer" : 0,
            "byteLength" : 154440,
            "byteOffset" : 2220080
        },
        {
            "buffer" : 0,
            "byteLength" : 154440,
            "byteOffset" : 2374520
        },
        {
            "buffer" : 0,
            "byteLength" : 102960,
            "byteOffset" : 2528960
        },
        {
            "buffer" : 0,
            "byteLength" : 147456,
            "byteOffset" : 2631920
        }
    ],
    "buffers" : [
        {
            "byteLength" : 2779376,
            "uri" : "data:application/octet-stream;base64,"
        }
    ]
}
