{
    "asset" : {
        "generator" : "Khronos glTF Blender I/O v1.7.33",
        "version" : "2.0"
    },
    "scene" : 0,
    "scenes" : [
        {
            "name" : "Scene",
            "nodes" : [
                0,
                1
            ]
        }
    ],
    "nodes" : [
        {
            "mesh" : 0,
            "name" : "Cylinder",
            "rotation" : [
                -1,
                0,
                0,
                1.9470718370939721e-07
            ],
            "scale" : [
                0.18375711143016815,
                2.7563564777374268,
                0.18375711143016815
            ],
            "translation" : [
                6.427796363830566,
                -1.1641989946365356,
                1.0937447547912598
            ]
        },
        {
            "mesh" : 1,
            "name" : "Sphere",
            "rotation" : [
                -1,
                0,
                0,
                1.9470718370939721e-07
            ],
            "scale" : [
                0.6729636788368225,
                0.6729636788368225,
                0.6729636788368225
            ],
            "translation" : [
                6.431787967681885,
                2.1696677207946777,
                1.0938340425491333
            ]
        }
    ],
    "materials" : [
        {
            "doubleSided" : true,
            "name" : "Material.001",
            "pbrMetallicRoughness" : {
                "baseColorFactor" : [
                    0.800000011920929,
                    0.800000011920929,
                    0.800000011920929,
                    1
                ],
                "metallicFactor" : 0,
                "roughnessFactor" : 0.4000000059604645
            }
        }
    ],
    "meshes" : [
        {
            "name" : "Cylinder.001",
            "primitives" : [
                {
                    "attributes" : {
                        "POSITION" : 0,
                        "NORMAL" : 1,
                        "TEXCOORD_0" : 2
                    },
                    "indices" : 3
                }
            ]
        },
        {
            "name" : "Sphere.001",
            "primitives" : [
                {
                    "attributes" : {
                        "POSITION" : 4,
                        "NORMAL" : 5,
                        "TEXCOORD_0" : 6
                    },
                    "indices" : 7,
                    "material" : 0
                }
            ]
        }
    ],
    "accessors" : [
        {
            "bufferView" : 0,
            "componentType" : 5126,
            "count" : 130,
            "max" : [
                1,
                1,
                1
            ],
            "min" : [
                -1,
                -1,
                -1
            ],
            "type" : "VEC3"
        },
        {
            "bufferView" : 1,
            "componentType" : 5126,
            "count" : 130,
            "type" : "VEC3"
        },
        {
            "bufferView" : 2,
            "componentType" : 5126,
            "count" : 130,
            "type" : "VEC2"
        },
        {
            "bufferView" : 3,
            "componentType" : 5123,
            "count" : 372,
            "type" : "SCALAR"
        },
        {
            "bufferView" : 4,
            "componentType" : 5126,
            "count" : 559,
            "max" : [
                0.9999997019767761,
                1,
                0.9999994039535522
            ],
            "min" : [
                -0.9999990463256836,
                -1,
                -0.9999987483024597
            ],
            "type" : "VEC3"
        },
        {
            "bufferView" : 5,
            "componentType" : 5126,
            "count" : 559,
            "type" : "VEC3"
        },
        {
            "bufferView" : 6,
            "componentType" : 5126,
            "count" : 559,
            "type" : "VEC2"
        },
        {
            "bufferView" : 7,
            "componentType" : 5123,
            "count" : 2880,
            "type" : "SCALAR"
        }
    ],
    "bufferViews" : [
        {
            "buffer" : 0,
            "byteLength" : 1560,
            "byteOffset" : 0
        },
        {
            "buffer" : 0,
            "byteLength" : 1560,
            "byteOffset" : 1560
        },
        {
            "buffer" : 0,
            "byteLength" : 1040,
            "byteOffset" : 3120
        },
        {
            "buffer" : 0,
            "byteLength" : 744,
            "byteOffset" : 4160
        },
        {
            "buffer" : 0,
            "byteLength" : 6708,
            "byteOffset" : 4904
        },
        {
            "buffer" : 0,
            "byteLength" : 6708,
            "byteOffset" : 11612
        },
        {
            "buffer" : 0,
            "byteLength" : 4472,
            "byteOffset" : 18320
        },
        {
            "buffer" : 0,
            "byteLength" : 5760,
            "byteOffset" : 22792
        }
    ],
    "buffers" : [
        {
            "byteLength" : 28552,
            "uri" : "data:application/octet-stream;base64,"
        }
    ]
}
