{
    "asset" : {
        "generator" : "Khronos glTF Blender I/O v1.7.33",
        "version" : "2.0"
    },
    "scene" : 0,
    "scenes" : [
        {
            "name" : "Scene",
            "nodes" : [
                0
            ]
        }
    ],
    "nodes" : [
        {
            "mesh" : 0,
            "name" : "Icosphere.001",
            "scale" : [
                0.7843457460403442,
                0.7541335821151733,
                1.6765869855880737
            ]
        }
    ],
    "meshes" : [
        {
            "name" : "Icosphere.007",
            "primitives" : [
                {
                    "attributes" : {
                        "POSITION" : 0,
                        "NORMAL" : 1,
                        "TEXCOORD_0" : 2
                    },
                    "indices" : 3
                }
            ]
        }
    ],
    "accessors" : [
        {
            "bufferView" : 0,
            "componentType" : 5126,
            "count" : 4775,
            "max" : [
                1.1758118867874146,
                1.6351792812347412,
                1.069728136062622
            ],
            "min" : [
                -1.0922091007232666,
                -0.21633906662464142,
                -0.946885883808136
            ],
            "type" : "VEC3"
        },
        {
            "bufferView" : 1,
            "componentType" : 5126,
            "count" : 4775,
            "type" : "VEC3"
        },
        {
            "bufferView" : 2,
            "componentType" : 5126,
            "count" : 4775,
            "type" : "VEC2"
        },
        {
            "bufferView" : 3,
            "componentType" : 5123,
            "count" : 23040,
            "type" : "SCALAR"
        }
    ],
    "bufferViews" : [
        {
            "buffer" : 0,
            "byteLength" : 57300,
            "byteOffset" : 0
        },
        {
            "buffer" : 0,
            "byteLength" : 57300,
            "byteOffset" : 57300
        },
        {
            "buffer" : 0,
            "byteLength" : 38200,
            "byteOffset" : 114600
        },
        {
            "buffer" : 0,
            "byteLength" : 46080,
            "byteOffset" : 152800
        }
    ],
    "buffers" : [
        {
            "byteLength" : 198880,
            "uri" : "data:application/octet-stream;base64,"
        }
    ]
}
